<?xml version="1.0" standalone="no"?>
<!DOCTYPE svg PUBLIC "-//W3C//DTD SVG 20010904//EN"
  "http://www.w3.org/TR/2001/REC-SVG-20010904/DTD/svg10.dtd">
<svg version="1.0" xmlns="http://www.w3.org/2000/svg"
     width="840.000000pt" height="1060.000000pt" viewBox="0 0 840.000000 1060.000000"
     preserveAspectRatio="xMidYMid meet">
  <metadata>
    Created by potrace 1.15, written by Peter Selinger 2001-2017
  </metadata>
  <g transform="translate(0.000000,1060.000000) scale(0.100000,-0.100000)"
     fill="#000000" stroke="none">
    <path d="M1179 10187 c-57 -16 -119 -52 -195 -113 -32 -26 -64 -51 -70 -56 -6
-4 -47 -14 -91 -22 -127 -22 -183 -60 -286 -195 -133 -176 -168 -373 -93 -525
26 -54 90 -127 141 -163 l30 -21 -41 -49 c-116 -137 -318 -470 -354 -582 -39
-123 -9 -199 99 -250 l56 -26 268 0 c239 0 269 -2 278 -17 19 -33 39 -138 65
-333 57 -426 31 -812 -112 -1615 -50 -282 -64 -411 -71 -630 -11 -379 45 -697
179 -1005 124 -287 447 -766 712 -1057 92 -101 112 -128 99 -132 -10 -3 -62
-15 -116 -26 -282 -57 -531 -192 -737 -400 -162 -162 -256 -321 -306 -518
-119 -462 83 -921 536 -1215 250 -162 468 -230 730 -230 276 1 435 51 698 221
46 29 90 56 97 58 9 4 36 -27 73 -83 64 -95 161 -193 263 -265 195 -139 502
-258 809 -315 117 -21 439 -24 610 -4 484 54 778 119 968 215 139 70 285 211
332 321 36 84 42 136 38 314 l-3 174 155 52 c575 192 904 391 1012 612 32 66
33 72 33 193 0 111 -3 135 -29 210 -79 237 -269 512 -490 709 l-83 74 33 71
c34 76 70 192 105 346 33 149 66 208 178 320 53 53 150 145 217 204 262 234
520 553 630 779 51 105 63 182 64 381 l0 109 67 70 c96 102 169 220 303 492
190 385 230 492 216 569 -9 48 -76 123 -132 148 -49 21 -54 31 -54 109 0 33
-5 91 -11 128 -9 55 -8 81 5 145 30 146 15 431 -27 512 -31 59 -112 114 -169
114 -36 0 -133 -50 -266 -139 l-122 -81 -10 25 c-5 14 -13 37 -16 50 -9 36
-71 103 -117 126 -30 16 -51 20 -83 15 -117 -16 -676 -281 -863 -409 -105 -72
-215 -179 -341 -332 -128 -155 -225 -248 -276 -265 -24 -8 -65 -10 -123 -6
-379 28 -476 19 -786 -71 -333 -98 -454 -123 -670 -139 -190 -14 -370 34 -529
140 -109 72 -287 247 -334 327 -42 72 -139 283 -287 624 -161 374 -307 664
-412 825 -170 257 -370 484 -524 592 -33 23 -59 45 -59 48 0 3 23 37 51 75
147 201 187 409 98 509 -81 93 -197 132 -357 122 -116 -7 -119 -6 -202 62 -89
73 -166 104 -268 108 -52 2 -105 -1 -133 -9z m211 -473 c119 -123 162 -141
263 -113 22 6 41 8 44 5 3 -3 -13 -26 -35 -53 -43 -52 -65 -92 -76 -137 l-7
-28 -132 7 c-155 8 -262 -3 -388 -41 l-89 -27 -70 47 c-45 30 -76 59 -86 80
-15 31 -15 36 2 71 27 57 64 75 140 68 91 -8 148 21 248 132 43 47 81 85 85
85 4 0 49 -43 101 -96z m435 -775 c118 -91 275 -275 418 -489 96 -144 291
-550 497 -1035 144 -339 212 -448 390 -625 225 -224 431 -347 674 -402 70 -16
128 -21 246 -21 262 -1 462 33 825 140 l230 68 325 1 c365 1 399 6 523 71 91
48 221 171 350 333 134 168 189 224 273 279 88 59 409 223 418 214 3 -3 6 -29
6 -57 1 -92 52 -171 137 -208 63 -28 118 -19 204 32 37 22 71 40 74 40 4 0 4
-29 0 -65 -4 -41 -2 -78 5 -99 13 -40 67 -92 117 -112 23 -10 33 -21 33 -35 0
-19 -79 -188 -101 -215 -19 -23 -59 -147 -59 -181 0 -73 69 -151 157 -178 l32
-10 -40 -80 c-61 -119 -132 -208 -329 -410 -238 -245 -262 -295 -195 -397 29
-44 99 -98 127 -98 30 0 21 -33 -33 -116 -118 -181 -312 -399 -526 -588 -154
-137 -263 -252 -331 -349 -86 -122 -119 -207 -172 -432 -18 -77 -44 -161 -58
-187 -33 -62 -185 -216 -290 -296 -233 -174 -536 -307 -866 -377 -150 -32
-305 -45 -566 -45 -952 0 -1535 143 -2011 496 -418 309 -916 1016 -1048 1488
-50 176 -65 320 -58 550 7 223 22 345 96 771 96 557 115 735 115 1090 -1 222
-5 300 -23 440 -26 196 -53 334 -82 422 -42 127 -155 264 -256 310 -53 25 -62
26 -179 20 -68 -2 -124 -2 -124 2 0 19 111 162 171 222 74 73 196 141 284 158
28 5 165 9 305 8 l255 -2 60 -46z m4429 -5869 c142 -133 264 -318 325 -492
l30 -86 -57 -54 c-118 -112 -393 -247 -751 -369 -198 -68 -196 -68 -272 34
-83 109 -350 376 -469 466 -52 40 -96 76 -98 80 -1 3 30 15 70 25 128 32 359
112 489 168 169 73 320 160 465 268 l119 88 40 -32 c22 -17 71 -60 109 -96z
m-3859 -102 c22 -9 86 -36 142 -62 119 -53 302 -118 417 -147 45 -11 84 -24
88 -28 5 -4 -14 -24 -42 -45 -65 -49 -159 -151 -211 -227 -109 -161 -163 -335
-182 -582 l-11 -159 -118 -86 c-264 -196 -360 -230 -623 -219 -251 10 -422 90
-628 295 -159 157 -227 306 -227 495 0 110 20 189 72 289 85 164 236 300 453
408 179 90 181 90 530 87 246 -2 307 -6 340 -19z m1628 -354 l289 -7 201 -139
c249 -172 399 -293 540 -435 184 -185 288 -344 327 -499 51 -199 7 -278 -206
-368 -142 -60 -336 -100 -659 -135 -271 -30 -358 -34 -494 -22 -450 40 -817
222 -949 470 -47 87 -62 170 -62 346 1 176 7 212 61 323 71 148 194 252 484
411 94 51 137 70 155 66 14 -3 155 -8 313 -11z" />
  </g>
</svg>
