<?xml version="1.0" standalone="no"?>
<!DOCTYPE svg PUBLIC "-//W3C//DTD SVG 20010904//EN"
  "http://www.w3.org/TR/2001/REC-SVG-20010904/DTD/svg10.dtd">
<svg version="1.0" xmlns="http://www.w3.org/2000/svg"
     width="512.000000pt" height="512.000000pt" viewBox="0 0 512.000000 512.000000"
     preserveAspectRatio="xMidYMid meet">
  <metadata>
    Created by potrace 1.15, written by Peter Selinger 2001-2017
  </metadata>
  <g transform="translate(0.000000,512.000000) scale(0.100000,-0.100000)"
     fill="#000000" stroke="none">
    <path d="M2336 5104 c-238 -43 -501 -179 -722 -372 -432 -378 -780 -1035 -914
-1724 l-11 -58 -40 32 c-35 28 -48 32 -99 33 -104 0 -142 -47 -165 -206 -72
-521 -22 -1057 140 -1474 209 -541 587 -936 1110 -1160 162 -70 403 -133 608
-160 156 -20 478 -20 634 0 648 85 1165 394 1504 900 282 421 420 1007 380
1615 -28 416 -55 485 -191 485 -51 -1 -64 -5 -99 -33 -23 -18 -41 -31 -41 -28
0 28 -60 279 -95 397 -282 943 -900 1639 -1559 1754 -110 19 -332 18 -440 -1z
m454 -320 c526 -133 1039 -774 1265 -1579 38 -136 81 -339 91 -434 7 -61 6
-66 -19 -85 -14 -12 -66 -56 -115 -99 l-91 -77 -278 241 c-153 132 -295 252
-315 266 -46 31 -124 35 -165 7 -16 -10 -157 -129 -315 -266 l-288 -249 -287
249 c-159 137 -300 256 -316 266 -41 28 -119 24 -165 -7 -20 -14 -162 -134
-315 -266 l-279 -241 -90 77 c-49 43 -101 87 -115 99 -25 19 -26 24 -19 85 18
169 99 490 172 685 283 760 787 1282 1307 1354 89 12 227 2 337 -26z m-619
-2350 c276 -239 337 -284 389 -284 52 0 113 45 389 284 156 135 287 246 292
246 5 0 137 -111 295 -247 157 -137 302 -256 322 -266 46 -22 111 -16 155 15
17 12 121 100 232 196 l200 173 8 -68 c18 -155 -7 -497 -53 -718 -147 -714
-624 -1219 -1317 -1396 -171 -43 -325 -61 -523 -61 -948 0 -1654 559 -1840
1457 -46 220 -71 563 -53 718 l8 68 200 -173 c111 -96 215 -183 231 -195 47
-34 103 -39 155 -15 24 12 169 130 324 265 154 135 285 246 291 246 7 1 139
-110 295 -245z" />
    <path d="M2716 4630 c-68 -21 -115 -102 -102 -174 11 -56 50 -93 150 -141 154
-73 281 -178 406 -335 174 -218 324 -500 420 -795 37 -113 84 -174 136 -177
116 -6 184 47 184 144 0 49 -64 248 -129 403 -190 448 -500 836 -796 997 -132
72 -213 96 -269 78z" />
  </g>
</svg>
