<?xml version="1.0" standalone="no"?>
<!DOCTYPE svg PUBLIC "-//W3C//DTD SVG 20010904//EN"
  "http://www.w3.org/TR/2001/REC-SVG-20010904/DTD/svg10.dtd">
<svg version="1.0" xmlns="http://www.w3.org/2000/svg"
     width="1600.000000pt" height="1600.000000pt" viewBox="0 0 1600.000000 1600.000000"
     preserveAspectRatio="xMidYMid meet">
  <metadata>
    Created by potrace 1.15, written by Peter Selinger 2001-2017
  </metadata>
  <g transform="translate(0.000000,1600.000000) scale(0.100000,-0.100000)"
     fill="#000000" stroke="none">
    <path d="M4998 12669 l-2998 -1999 0 -4378 c0 -4847 -6 -4433 65 -4577 69
-139 184 -252 330 -321 144 -69 -347 -64 5605 -64 5952 0 5461 -5 5605 64 146
69 261 182 330 321 71 144 65 -270 65 4577 l0 4378 -3000 2000 c-1650 1100
-3001 2000 -3002 1999 -2 0 -1352 -900 -3000 -2000z m5329 -1157 l2328 -1549
3 -3646 2 -3647 -4660 0 -4660 0 2 3647 3 3646 2325 1548 c1279 851 2326 1548
2327 1548 1 1 1049 -696 2330 -1547z" />
    <path d="M5150 9985 c-236 -47 -462 -174 -663 -372 -230 -227 -387 -512 -459
-835 -20 -89 -23 -130 -23 -308 0 -174 4 -222 23 -318 47 -231 139 -455 264
-642 123 -184 327 -369 505 -457 53 -26 72 -41 68 -51 -3 -8 -19 -65 -35 -126
-56 -211 -101 -506 -116 -763 -7 -110 -8 -113 -31 -113 l-23 0 0 -1335 0
-1335 670 0 670 0 0 1233 c0 1432 4 1527 77 1827 67 277 165 471 322 634 156
161 329 243 606 288 124 19 526 16 650 -5 552 -96 866 -396 976 -933 29 -144
37 -468 15 -626 -24 -171 -67 -314 -140 -463 -109 -222 -256 -394 -446 -521
-128 -85 -172 -103 -470 -199 l-255 -82 -3 -577 -2 -576 670 0 670 0 0 188 0
189 83 55 c45 30 135 96 199 146 l117 92 1131 2 1131 3 -609 495 c-451 366
-607 498 -597 505 7 6 431 231 942 500 l930 490 -997 3 -997 2 -6 143 c-11
251 -59 493 -149 756 l-49 143 34 52 c79 119 134 261 157 409 20 120 8 320
-24 432 -88 300 -296 534 -585 658 -188 81 -441 97 -628 42 -20 -7 -21 -5 -12
32 19 74 22 379 5 485 -65 398 -281 664 -632 781 -204 67 -481 87 -671 48
-274 -57 -513 -234 -665 -494 -23 -39 -43 -74 -44 -76 -2 -2 -52 48 -112 110
-208 217 -430 343 -736 419 -224 56 -576 77 -736 45z" />
    <path d="M7433 6655 c-231 -63 -384 -290 -345 -516 17 -96 53 -169 122 -243
101 -108 213 -152 363 -143 76 4 99 10 163 42 98 48 171 121 219 219 32 64 38
87 42 163 9 150 -35 262 -143 363 -120 112 -274 154 -421 115z" />
  </g>
</svg>
