<?xml version="1.0" standalone="no"?>
<!DOCTYPE svg PUBLIC "-//W3C//DTD SVG 20010904//EN"
  "http://www.w3.org/TR/2001/REC-SVG-20010904/DTD/svg10.dtd">
<svg version="1.0" xmlns="http://www.w3.org/2000/svg"
     width="1600.000000pt" height="1600.000000pt" viewBox="0 0 1600.000000 1600.000000"
     preserveAspectRatio="xMidYMid meet">
  <metadata>
    Created by potrace 1.15, written by Peter Selinger 2001-2017
  </metadata>
  <g transform="translate(0.000000,1600.000000) scale(0.100000,-0.100000)"
     fill="#000000" stroke="none">
    <path d="M8250 15981 c-162 -52 -300 -168 -368 -312 -50 -105 -65 -171 -65
-279 1 -167 60 -310 177 -426 78 -77 147 -121 246 -154 58 -20 96 -23 345 -31
549 -16 975 -89 1455 -249 1026 -342 1894 -1006 2485 -1900 420 -635 682
-1356 769 -2115 19 -163 36 -428 36 -561 0 -192 57 -333 185 -461 125 -122
281 -180 460 -170 267 16 464 174 553 442 14 41 17 91 16 290 -6 1194 -405
2413 -1118 3409 -197 275 -360 469 -606 720 -242 246 -430 412 -695 611 -1037
778 -2315 1207 -3585 1204 -196 0 -244 -3 -290 -18z" />
    <path d="M8265 13561 c-215 -62 -375 -225 -430 -436 -20 -73 -22 -224 -5 -296
41 -173 166 -330 324 -407 102 -50 167 -62 327 -62 512 0 982 -70 1305 -193
663 -254 995 -769 1094 -1702 6 -55 15 -221 20 -370 8 -248 11 -277 34 -350
145 -456 743 -573 1051 -206 76 92 119 193 136 321 11 90 -4 512 -26 730 -78
744 -286 1331 -642 1809 -108 145 -361 399 -505 506 -535 400 -1204 614 -2083
665 -271 16 -528 12 -600 -9z" />
    <path d="M3875 12894 c-396 -31 -721 -138 -978 -321 -192 -137 -485 -473 -712
-818 -165 -251 -343 -580 -464 -857 -429 -989 -555 -2066 -360 -3083 177 -926
629 -1835 1322 -2661 293 -349 644 -701 983 -986 570 -479 1269 -867 1959
-1087 1288 -412 2730 -330 4033 228 570 244 1125 610 1395 917 674 772 518
2240 -413 3863 -159 277 -414 675 -504 786 l-25 30 -51 -50 c-118 -114 -272
-388 -343 -610 -47 -146 -60 -227 -55 -344 l4 -97 74 -129 c313 -546 517
-1076 586 -1520 25 -166 23 -411 -5 -545 -61 -291 -205 -487 -444 -604 -130
-64 -235 -92 -400 -107 -185 -18 -424 7 -681 72 -1241 312 -2834 1486 -4000
2947 -734 921 -1210 1857 -1317 2592 -18 121 -21 175 -16 325 6 221 30 327
109 485 45 91 64 117 148 200 77 78 112 104 185 142 172 88 322 121 545 121
425 -1 905 -144 1510 -452 l225 -115 102 -4 c70 -3 127 1 185 13 253 50 570
202 751 358 96 82 103 68 -116 210 -977 630 -1880 993 -2702 1087 -97 11 -449
20 -530 14z" />
    <path d="M8351 11149 c-420 -44 -792 -309 -970 -690 -22 -46 -43 -96 -46 -111
-4 -16 -13 -28 -21 -28 -8 0 -364 -41 -791 -91 -428 -49 -821 -94 -873 -99
-53 -4 -120 -18 -152 -30 -123 -46 -241 -163 -289 -288 -34 -86 -39 -255 -10
-340 52 -152 169 -271 317 -322 75 -26 185 -36 250 -22 28 6 399 47 825 92
426 44 790 83 809 86 35 5 37 3 85 -68 65 -94 200 -230 293 -293 53 -36 72
-54 72 -71 0 -12 -39 -386 -87 -830 -98 -922 -101 -960 -78 -1041 53 -184 207
-329 384 -363 290 -55 567 140 602 423 5 39 50 430 99 867 50 437 94 808 98
823 6 24 19 33 79 57 225 87 431 262 573 488 185 294 231 691 119 1026 -153
458 -554 777 -1038 826 -115 11 -130 11 -250 -1z" />
    <path d="M4145 2569 c-786 -400 -1337 -1039 -1521 -1765 -36 -145 -59 -294
-70 -456 l-7 -108 3548 0 3548 0 -6 108 c-27 544 -427 1205 -926 1530 l-84 55
-176 -27 c-765 -116 -1427 -114 -2121 5 -659 112 -1236 306 -1849 620 -107 54
-199 99 -205 99 -6 0 -65 -28 -131 -61z" />
  </g>
</svg>
