<?xml version="1.0" standalone="no"?>
<!DOCTYPE svg PUBLIC "-//W3C//DTD SVG 20010904//EN"
  "http://www.w3.org/TR/2001/REC-SVG-20010904/DTD/svg10.dtd">
<svg version="1.0" xmlns="http://www.w3.org/2000/svg"
     width="225.000000pt" height="225.000000pt" viewBox="0 0 225.000000 225.000000"
     preserveAspectRatio="xMidYMid meet">
  <metadata>
    Created by potrace 1.15, written by Peter Selinger 2001-2017
  </metadata>
  <g transform="translate(0.000000,225.000000) scale(0.100000,-0.100000)"
     fill="#000000" stroke="none">
    <path d="M1029 2203 c-40 -21 -61 -40 -84 -77 l-30 -49 -3 -664 c-1 -365 -7
-663 -11 -663 -22 0 -107 -101 -135 -160 -28 -59 -31 -74 -31 -165 0 -92 3
-106 32 -167 106 -225 379 -303 583 -166 117 77 188 222 177 357 -9 108 -40
175 -116 251 l-66 65 -2 645 c-2 390 -7 659 -13 680 -12 44 -62 97 -115 121
-59 27 -121 24 -186 -8z m171 -62 c19 -10 44 -34 55 -52 19 -33 20 -55 23
-701 l3 -667 39 -29 c96 -71 145 -174 137 -289 -21 -281 -345 -408 -555 -218
-81 73 -121 210 -93 322 17 65 65 137 120 179 l46 36 5 671 5 672 24 34 c43
59 125 78 191 42z" />
    <path d="M1081 1504 c-48 -34 -51 -57 -51 -447 l0 -363 -52 -34 c-92 -61 -135
-151 -125 -258 22 -243 323 -340 485 -157 66 75 86 165 58 259 -22 71 -60 123
-121 162 l-54 34 0 353 c0 193 0 365 0 380 -1 38 -50 87 -88 87 -16 0 -39 -7
-52 -16z" />
  </g>
</svg>
